<svg width="22" height="18" viewBox="0 0 22 18" fill="none" xmlns="http://www.w3.org/2000/svg">
    <path
    fill-rule="evenodd"
    clip-rule="evenodd"
    d="M11.0001 3.52023C10.6805 3.04625 10.239 2.49888 9.68051 2.00157C8.77907 1.19894 7.54072 0.5 6 0.5C2.95137 0.5 0.5 3.0274 0.5 6.12C0.499991 9.04007 2.65061 11.7635 4.91921 13.7649C6.0688 14.7791 7.28089 15.6365 8.33517 16.2736C9.37198 16.9001 10.2966 17.3381 10.8726 17.4835C10.9137 17.4944 10.9565 17.5001 11.0001 17.5001C11.0437 17.5001 11.0865 17.4944 11.1276 17.4835C11.7036 17.3381 12.6282 16.9001 13.6651 16.2736C14.7193 15.6365 15.9314 14.7791 17.081 13.7649C19.3496 11.7635 21.5002 9.04007 21.5002 6.12C21.5002 3.0274 19.0489 0.5 16.0002 0.5C14.4595 0.5 13.2212 1.19894 12.3197 2.00157C11.7612 2.49888 11.3197 3.04625 11.0001 3.52023ZM10.5528 4.72361C10.3254 4.26879 9.80165 3.44839 9.01552 2.74843C8.2323 2.05106 7.22066 1.5 6 1.5C3.52588 1.5 1.5 3.5572 1.5 6.12C1.49999 8.57993 3.34938 11.0465 5.58078 13.0151C6.68119 13.9859 7.8441 14.8085 8.85233 15.4177C9.7844 15.9809 10.5505 16.3412 11.0001 16.4807C11.4497 16.3412 12.2158 15.9809 13.1479 15.4177C14.1561 14.8085 15.319 13.9859 16.4195 13.0151C18.6508 11.0465 20.5002 8.57993 20.5002 6.12C20.5002 3.5572 18.4743 1.5 16.0002 1.5C14.7796 1.5 13.7679 2.05106 12.9847 2.74843C12.1986 3.44839 11.6749 4.26879 11.4474 4.72361C11.3843 4.84999 11.2748 4.93792 11.1498 4.97711C11.0501 5.00853 10.9458 5.00701 10.8504 4.97711C10.7255 4.93792 10.616 4.84999 10.5528 4.72361Z"
    fill="currentColor"
    />
</svg>